# xmcd
#
# Track frame offsets:
#	150
#	18046
#	32035
#	51026
#	83331
#	94472
#	123007
#	143890
#	176961
#	195238
#
# Disc length: 2872 seconds
#
# Revision: 1
# Processed by: cddbd v1.5.2PL0 Copyright (c) Steve Scherf et al.
# Submitted via: audiograbber 1.83.01
#
DISCID=740b360a
DTITLE=The Ted Vaughn Blues Band - The Ted Vaughn Blues Band
DYEAR=2011
DGENRE=Blues
TTITLE0=Them 12 Bar Blues
TTITLE1=Boom, Boom
TTITLE2=Killing Floor
TTITLE3=Nothing But Trouble
TTITLE4=Swang Thang
TTITLE5=The Trill Is Gone
TTITLE6=I Love You Baby
TTITLE7=How Blue Can You Get
TTITLE8=Don´t Put No Headston On My Grave
TTITLE9=Treat Her Right
EXTD=
EXTT0=
EXTT1=
EXTT2=
EXTT3=
EXTT4=
EXTT5=
EXTT6=
EXTT7=
EXTT8=
EXTT9=
PLAYORDER=
